<?xml version="1.0" encoding="utf-8"?>
<svg xmlns="http://www.w3.org/2000/svg" style="margin: auto; display: block; shape-rendering: auto;" width="280" height="250" preserveAspectRatio="xMidYMid">
<style type="text/css">
  text {
    text-anchor: middle; font-size: 55px; opacity: 0;
  }
</style>
<g style="transform-origin:140px 125px;transform:scale(1)">
<g transform="translate(140,125)">
  <g transform="translate(0,0)"><g class="path" style="opacity: 1; transform-origin: -115.31px -4.80412px; animation: 1.33333s linear -0.30303s infinite normal forwards running fade-81e5df3d-13cd-442e-bec5-358a46de53a7;"><path d="M20.57-16.28L20.57-20.41L33.49-20.41L33.49 0L28.88 0L28.88-3.85L28.88-3.85Q26.95-2.15 24.20-0.74L24.20-0.74L24.20-0.74Q21.45 0.66 18.09 0.66L18.09 0.66L18.09 0.66Q14.74 0.66 11.94-0.66L11.94-0.66L11.94-0.66Q9.13-1.98 7.09-4.46L7.09-4.46L7.09-4.46Q5.06-6.93 3.90-10.42L3.90-10.42L3.90-10.42Q2.75-13.92 2.75-18.26L2.75-18.26L2.75-18.26Q2.75-22.88 3.93-26.70L3.93-26.70L3.93-26.70Q5.12-30.52 7.37-33.30L7.37-33.30L7.37-33.30Q9.63-36.08 12.90-37.62L12.90-37.62L12.90-37.62Q16.17-39.16 20.35-39.16L20.35-39.16L20.35-39.16Q23.98-39.16 26.76-38.28L26.76-38.28L26.76-38.28Q29.54-37.40 32.01-36.02L32.01-36.02L30.09-31.68L30.09-31.68Q27.77-32.95 25.41-33.77L25.41-33.77L25.41-33.77Q23.05-34.59 20.07-34.59L20.07-34.59L20.07-34.59Q17.49-34.59 15.29-33.55L15.29-33.55L15.29-33.55Q13.09-32.51 11.49-30.47L11.49-30.47L11.49-30.47Q9.90-28.43 8.99-25.44L8.99-25.44L8.99-25.44Q8.09-22.44 8.09-18.59L8.09-18.59L8.09-18.59Q8.09-15.13 8.91-12.40L8.91-12.40L8.91-12.40Q9.73-9.68 11.22-7.78L11.22-7.78L11.22-7.78Q12.71-5.88 14.77-4.90L14.77-4.90L14.77-4.90Q16.83-3.90 19.30-3.90L19.30-3.90L19.30-3.90Q20.84-3.90 22.22-4.26L22.22-4.26L22.22-4.26Q23.59-4.62 24.75-5.20L24.75-5.20L24.75-5.20Q25.91-5.78 26.87-6.46L26.87-6.46L26.87-6.46Q27.83-7.15 28.55-7.87L28.55-7.87L28.55-16.28L20.57-16.28" fill="#157759" stroke="none" stroke-width="none" transform="translate(-133.42996215820312,14.445877441059451)" style="fill: rgb(21, 119, 89);"></path></g><g class="path" style="opacity: 1; transform-origin: -81.26px 0.145877px; animation: 1.33333s linear -0.272727s infinite normal forwards running fade-81e5df3d-13cd-442e-bec5-358a46de53a7;"><path d="M64.63-12.27L44.61-12.27L44.61-12.27Q45.10-8.25 47.41-6.00L47.41-6.00L47.41-6.00Q49.72-3.74 53.52-3.74L53.52-3.74L53.52-3.74Q55.99-3.74 57.97-4.26L57.97-4.26L57.97-4.26Q59.95-4.79 61.77-5.61L61.77-5.61L62.92-1.38L62.92-1.38Q60.94-0.44 58.47 0.11L58.47 0.11L58.47 0.11Q55.99 0.66 52.91 0.66L52.91 0.66L52.91 0.66Q49.83 0.66 47.36-0.36L47.36-0.36L47.36-0.36Q44.88-1.38 43.15-3.27L43.15-3.27L43.15-3.27Q41.41-5.17 40.48-7.95L40.48-7.95L40.48-7.95Q39.55-10.72 39.55-14.30L39.55-14.30L39.55-14.30Q39.55-17.49 40.48-20.24L40.48-20.24L40.48-20.24Q41.41-22.99 43.12-25.00L43.12-25.00L43.12-25.00Q44.83-27.00 47.19-28.13L47.19-28.13L47.19-28.13Q49.55-29.26 52.47-29.26L52.47-29.26L52.47-29.26Q55.55-29.26 57.86-28.21L57.86-28.21L57.86-28.21Q60.17-27.17 61.71-25.36L61.71-25.36L61.71-25.36Q63.25-23.54 64.02-21.12L64.02-21.12L64.02-21.12Q64.79-18.70 64.79-16.00L64.79-16.00L64.79-16.00Q64.79-14.08 64.63-12.27L64.63-12.27zM52.36-24.97L52.36-24.97L52.36-24.97Q49.12-24.97 47.05-22.77L47.05-22.77L47.05-22.77Q44.99-20.57 44.55-16.28L44.55-16.28L60.23-16.28L60.23-16.28Q60.23-20.46 58.14-22.71L58.14-22.71L58.14-22.71Q56.05-24.97 52.36-24.97" fill="#157759" stroke="none" stroke-width="none" transform="translate(-133.42996215820312,14.445877441059451)" style="fill: rgb(83, 171, 139);"></path></g><g class="path" style="opacity: 1; transform-origin: -50.02px -0.184123px; animation: 1.33333s linear -0.242424s infinite normal forwards running fade-81e5df3d-13cd-442e-bec5-358a46de53a7;"><path d="M76.18-28.60L76.18-23.82L76.18-23.82Q77.72-26.13 80.11-27.69L80.11-27.69L80.11-27.69Q82.50-29.26 85.80-29.26L85.80-29.26L85.80-29.26Q90.64-29.26 93.03-26.34L93.03-26.34L93.03-26.34Q95.43-23.43 95.43-18.64L95.43-18.64L95.43 0L90.48 0L90.48-18.09L90.48-18.09Q90.48-21.23 89.05-23.07L89.05-23.07L89.05-23.07Q87.62-24.91 84.98-24.91L84.98-24.91L84.98-24.91Q83.71-24.91 82.50-24.45L82.50-24.45L82.50-24.45Q81.29-23.98 80.16-23.16L80.16-23.16L80.16-23.16Q79.04-22.33 78.07-21.23L78.07-21.23L78.07-21.23Q77.11-20.13 76.34-18.92L76.34-18.92L76.34 0L71.39 0L71.39-28.60L76.18-28.60" fill="#157759" stroke="none" stroke-width="none" transform="translate(-133.42996215820312,14.445877441059451)" style="fill: rgb(130, 219, 184);"></path></g><g class="path" style="opacity: 1; transform-origin: -20.98px -0.184123px; animation: 1.33333s linear -0.212121s infinite normal forwards running fade-81e5df3d-13cd-442e-bec5-358a46de53a7;"><path d="M120.95-28.93L119.46-23.82L119.46-23.82Q118.42-24.25 116.99-24.25L116.99-24.25L116.99-24.25Q115.45-24.25 113.99-23.59L113.99-23.59L113.99-23.59Q112.53-22.93 111.40-21.61L111.40-21.61L111.40-21.61Q110.28-20.30 109.59-18.23L109.59-18.23L109.59-18.23Q108.90-16.17 108.90-13.37L108.90-13.37L108.90 0L103.95 0L103.95-28.60L108.74-28.60L108.74-22.39L108.74-22.39Q109.23-23.71 110.06-24.97L110.06-24.97L110.06-24.97Q110.88-26.23 112.01-27.17L112.01-27.17L112.01-27.17Q113.14-28.11 114.62-28.68L114.62-28.68L114.62-28.68Q116.11-29.26 117.92-29.26L117.92-29.26L117.92-29.26Q118.75-29.26 119.54-29.18L119.54-29.18L119.54-29.18Q120.34-29.09 120.95-28.93L120.95-28.93" fill="#157759" stroke="none" stroke-width="none" transform="translate(-133.42996215820312,14.445877441059451)" style="fill: rgb(21, 119, 89);"></path></g><g class="path" style="opacity: 1; transform-origin: 1.51004px 0.145877px; animation: 1.33333s linear -0.181818s infinite normal forwards running fade-81e5df3d-13cd-442e-bec5-358a46de53a7;"><path d="M147.40-12.27L127.38-12.27L127.38-12.27Q127.88-8.25 130.19-6.00L130.19-6.00L130.19-6.00Q132.50-3.74 136.29-3.74L136.29-3.74L136.29-3.74Q138.76-3.74 140.75-4.26L140.75-4.26L140.75-4.26Q142.72-4.79 144.54-5.61L144.54-5.61L145.69-1.38L145.69-1.38Q143.72-0.44 141.24 0.11L141.24 0.11L141.24 0.11Q138.76 0.66 135.69 0.66L135.69 0.66L135.69 0.66Q132.60 0.66 130.13-0.36L130.13-0.36L130.13-0.36Q127.66-1.38 125.92-3.27L125.92-3.27L125.92-3.27Q124.19-5.17 123.25-7.95L123.25-7.95L123.25-7.95Q122.32-10.72 122.32-14.30L122.32-14.30L122.32-14.30Q122.32-17.49 123.25-20.24L123.25-20.24L123.25-20.24Q124.19-22.99 125.89-25.00L125.89-25.00L125.89-25.00Q127.60-27.00 129.97-28.13L129.97-28.13L129.97-28.13Q132.33-29.26 135.25-29.26L135.25-29.26L135.25-29.26Q138.32-29.26 140.63-28.21L140.63-28.21L140.63-28.21Q142.94-27.17 144.49-25.36L144.49-25.36L144.49-25.36Q146.03-23.54 146.79-21.12L146.79-21.12L146.79-21.12Q147.56-18.70 147.56-16.00L147.56-16.00L147.56-16.00Q147.56-14.08 147.40-12.27L147.40-12.27zM135.13-24.97L135.13-24.97L135.13-24.97Q131.89-24.97 129.83-22.77L129.83-22.77L129.83-22.77Q127.77-20.57 127.33-16.28L127.33-16.28L143-16.28L143-16.28Q143-20.46 140.91-22.71L140.91-22.71L140.91-22.71Q138.82-24.97 135.13-24.97" fill="#157759" stroke="none" stroke-width="none" transform="translate(-133.42996215820312,14.445877441059451)" style="fill: rgb(83, 171, 139);"></path></g><g class="path" style="opacity: 1; transform-origin: 33.44px 0.145877px; animation: 1.33333s linear -0.151515s infinite normal forwards running fade-81e5df3d-13cd-442e-bec5-358a46de53a7;"><path d="M152.24-14.13L152.24-14.13L152.24-14.13Q152.24-17.32 153.23-20.10L153.23-20.10L153.23-20.10Q154.22-22.88 156.01-24.91L156.01-24.91L156.01-24.91Q157.79-26.95 160.30-28.11L160.30-28.11L160.30-28.11Q162.80-29.26 165.77-29.26L165.77-29.26L165.77-29.26Q168.24-29.26 170.25-28.41L170.25-28.41L170.25-28.41Q172.26-27.55 173.74-26.29L173.74-26.29L173.74-28.60L178.25-28.60L178.25-6.93L178.25-6.93Q178.25-4.84 179.27-4.21L179.27-4.21L179.27-4.21Q180.29-3.58 181.50-3.58L181.50-3.58L180.45 0.28L180.45 0.28Q175.17 0.28 174.07-4.01L174.07-4.01L174.07-4.01Q173.41-3.14 172.56-2.28L172.56-2.28L172.56-2.28Q171.71-1.43 170.61-0.77L170.61-0.77L170.61-0.77Q169.51-0.11 168.13 0.28L168.13 0.28L168.13 0.28Q166.76 0.66 165.11 0.66L165.11 0.66L165.11 0.66Q162.41 0.66 160.08-0.39L160.08-0.39L160.08-0.39Q157.74-1.43 156.01-3.35L156.01-3.35L156.01-3.35Q154.27-5.28 153.26-8.00L153.26-8.00L153.26-8.00Q152.24-10.72 152.24-14.13zM166.21-3.74L166.21-3.74L166.21-3.74Q168.30-3.74 170.17-4.73L170.17-4.73L170.17-4.73Q172.04-5.72 173.30-7.32L173.30-7.32L173.30-22.66L173.30-22.66Q171.82-23.71 170.03-24.34L170.03-24.34L170.03-24.34Q168.24-24.97 166.26-24.97L166.26-24.97L166.26-24.97Q164.28-24.97 162.63-24.20L162.63-24.20L162.63-24.20Q160.98-23.43 159.80-22.03L159.80-22.03L159.80-22.03Q158.62-20.63 157.96-18.64L157.96-18.64L157.96-18.64Q157.30-16.66 157.30-14.30L157.30-14.30L157.30-14.30Q157.30-11.99 157.96-10.04L157.96-10.04L157.96-10.04Q158.62-8.09 159.83-6.68L159.83-6.68L159.83-6.68Q161.04-5.28 162.66-4.51L162.66-4.51L162.66-4.51Q164.28-3.74 166.21-3.74" fill="#157759" stroke="none" stroke-width="none" transform="translate(-133.42996215820312,14.445877441059451)" style="fill: rgb(130, 219, 184);"></path></g><g class="path" style="opacity: 1; transform-origin: 61.705px -5.57412px; animation: 1.33333s linear -0.121212s infinite normal forwards running fade-81e5df3d-13cd-442e-bec5-358a46de53a7;"><path d="M192.77-40.70L192.77-9.46L192.77-9.46Q192.77-6.49 194.01-5.06L194.01-5.06L194.01-5.06Q195.25-3.63 197.45-3.63L197.45-3.63L197.45-3.63Q198.49-3.63 199.48-3.88L199.48-3.88L199.48-3.88Q200.47-4.13 201.25-4.46L201.25-4.46L202.45-0.44L202.45-0.44Q201.46 0 200.01 0.33L200.01 0.33L200.01 0.33Q198.55 0.66 196.79 0.66L196.79 0.66L196.79 0.66Q194.86 0.66 193.24 0.11L193.24 0.11L193.24 0.11Q191.62-0.44 190.41-1.59L190.41-1.59L190.41-1.59Q189.20-2.75 188.51-4.57L188.51-4.57L188.51-4.57Q187.82-6.38 187.82-8.96L187.82-8.96L187.82-40.70L192.77-40.70" fill="#157759" stroke="none" stroke-width="none" transform="translate(-133.42996215820312,14.445877441059451)" style="fill: rgb(21, 119, 89);"></path></g><g class="path" style="opacity: 1; transform-origin: 76.175px 0.145877px; animation: 1.33333s linear -0.0909091s infinite normal forwards running fade-81e5df3d-13cd-442e-bec5-358a46de53a7;"><path d="M212.08-28.60L212.08 0L207.13 0L207.13-28.60L212.08-28.60" fill="#157759" stroke="none" stroke-width="none" transform="translate(-133.42996215820312,14.445877441059451)" style="fill: rgb(83, 171, 139);"></path></g><g class="path" style="opacity: 1; transform-origin: 76.175px -22.5091px; animation: 1.33333s linear -0.0606061s infinite normal forwards running fade-81e5df3d-13cd-442e-bec5-358a46de53a7;"><path d="M209.60-33.49L209.60-33.49L209.60-33.49Q208.17-33.49 207.16-34.51L207.16-34.51L207.16-34.51Q206.14-35.53 206.14-36.96L206.14-36.96L206.14-36.96Q206.14-38.55 207.07-39.49L207.07-39.49L207.07-39.49Q208.01-40.42 209.60-40.42L209.60-40.42L209.60-40.42Q211.03-40.42 212.05-39.41L212.05-39.41L212.05-39.41Q213.07-38.39 213.07-36.96L213.07-36.96L213.07-36.96Q213.07-35.37 212.13-34.43L212.13-34.43L212.13-34.43Q211.20-33.49 209.60-33.49" fill="#157759" stroke="none" stroke-width="none" transform="translate(-133.42996215820312,14.445877441059451)" style="fill: rgb(130, 219, 184);"></path></g><g class="path" style="opacity: 1; transform-origin: 96.03px 0.145877px; animation: 1.33333s linear -0.030303s infinite normal forwards running fade-81e5df3d-13cd-442e-bec5-358a46de53a7;"><path d="M218.73-24.31L218.73-28.60L240.24-28.60L240.24-24.80L224.51-4.40L240.51-4.40L240.51 0L218.41 0L218.41-3.90L234.19-24.31L218.73-24.31" fill="#157759" stroke="none" stroke-width="none" transform="translate(-133.42996215820312,14.445877441059451)" style="fill: rgb(21, 119, 89);"></path></g><g class="path" style="opacity: 1; transform-origin: 123.555px 0.145877px; animation: 1.33333s linear 0s infinite normal forwards running fade-81e5df3d-13cd-442e-bec5-358a46de53a7;"><path d="M269.44-12.27L249.42-12.27L249.42-12.27Q249.92-8.25 252.23-6.00L252.23-6.00L252.23-6.00Q254.54-3.74 258.33-3.74L258.33-3.74L258.33-3.74Q260.81-3.74 262.79-4.26L262.79-4.26L262.79-4.26Q264.77-4.79 266.58-5.61L266.58-5.61L267.74-1.38L267.74-1.38Q265.76-0.44 263.28 0.11L263.28 0.11L263.28 0.11Q260.81 0.66 257.73 0.66L257.73 0.66L257.73 0.66Q254.65 0.66 252.17-0.36L252.17-0.36L252.17-0.36Q249.70-1.38 247.97-3.27L247.97-3.27L247.97-3.27Q246.23-5.17 245.30-7.95L245.30-7.95L245.30-7.95Q244.36-10.72 244.36-14.30L244.36-14.30L244.36-14.30Q244.36-17.49 245.30-20.24L245.30-20.24L245.30-20.24Q246.23-22.99 247.94-25.00L247.94-25.00L247.94-25.00Q249.64-27.00 252.01-28.13L252.01-28.13L252.01-28.13Q254.38-29.26 257.29-29.26L257.29-29.26L257.29-29.26Q260.37-29.26 262.68-28.21L262.68-28.21L262.68-28.21Q264.99-27.17 266.53-25.36L266.53-25.36L266.53-25.36Q268.07-23.54 268.84-21.12L268.84-21.12L268.84-21.12Q269.61-18.70 269.61-16.00L269.61-16.00L269.61-16.00Q269.61-14.08 269.44-12.27L269.44-12.27zM257.18-24.97L257.18-24.97L257.18-24.97Q253.93-24.97 251.87-22.77L251.87-22.77L251.87-22.77Q249.81-20.57 249.37-16.28L249.37-16.28L265.04-16.28L265.04-16.28Q265.04-20.46 262.95-22.71L262.95-22.71L262.95-22.71Q260.87-24.97 257.18-24.97" fill="#157759" stroke="none" stroke-width="none" transform="translate(-133.42996215820312,14.445877441059451)" style="fill: rgb(83, 171, 139);"></path></g></g>
</g>
</g>
<style id="fade-81e5df3d-13cd-442e-bec5-358a46de53a7" data-anikit="">@keyframes fade-81e5df3d-13cd-442e-bec5-358a46de53a7
{
  0% {
    animation-timing-function: cubic-bezier(0.2057,0.573,0.3723,0.9184);
    opacity: 1;
  }
  100% {
    opacity: 0;
  }
}</style></svg>