<?xml version="1.0" encoding="utf-8"?>
<svg xmlns="http://www.w3.org/2000/svg" style="margin: auto; background: none; display: block; shape-rendering: auto;" width="280" height="250" preserveAspectRatio="xMidYMid">
<style type="text/css">
  text {
    text-anchor: middle; font-size: 65px; opacity: 0;
  }
</style>
<g style="transform-origin: 140px 125px; transform: scale(1.85714);">
<g transform="translate(140,125)">
  <g transform="translate(0,0)"><g class="path" style="opacity: 1; transform-origin: -59.53px -3.50053px; animation: 1s linear -0.6s infinite normal forwards running fade-54297e18-caea-460f-84e0-77f36bf3c479;"><path d="M15.23 0L14.74-1.44L14.74-1.44Q12.92 0.35 9.66 0.35L9.66 0.35L9.66 0.35Q7.70 0.35 6.02-0.39L6.02-0.39L6.02-0.39Q4.34-1.12 3.31-2.70L3.31-2.70L3.31-2.70Q2.28-4.27 2.28-6.62L2.28-6.62L2.28-17.61L2.28-17.61Q2.28-20.06 3.06-21.54L3.06-21.54L3.06-21.54Q3.85-23.03 5.32-23.94L5.32-23.94L5.32-23.94Q6.86-24.82 9.10-24.82L9.10-24.82L9.10-24.82Q11.83-24.82 14.04-23.66L14.04-23.66L13.48-22.33L13.48-22.33Q11.48-23.07 9.70-23.07L9.70-23.07L9.70-23.07Q7.56-23.07 5.90-22.02L5.90-22.02L5.90-22.02Q4.24-20.97 4.24-17.92L4.24-17.92L4.24-6.55L4.24-6.55Q4.24-4.20 5.76-2.87L5.76-2.87L5.76-2.87Q7.28-1.54 9.63-1.54L9.63-1.54L9.63-1.54Q12.01-1.54 13.41-2.91L13.41-2.91L13.41-2.91Q14.81-4.27 14.81-6.51L14.81-6.51L14.81-8.58L12.50-8.58L11.83-10.50L16.66-10.50L16.66 0L15.23 0" fill="#689cc5" stroke="none" stroke-width="none" transform="translate(-68.99998188018799,8.734470418149778)" style="fill: rgb(104, 156, 197);"></path></g><g class="path" style="opacity: 1; transform-origin: -42.68px 0.0194702px; animation: 1s linear -0.54s infinite normal forwards running fade-54297e18-caea-460f-84e0-77f36bf3c479;"><path d="M31.75-1.23L31.75-1.23Q30.49-0.42 28.88 0L28.88 0L28.88 0Q27.27 0.42 25.66 0.42L25.66 0.42L25.66 0.42Q23.07 0.42 21.54-0.86L21.54-0.86L21.54-0.86Q20.02-2.14 20.02-4.69L20.02-4.69L20.02-11.87L20.02-11.87Q20.02-14.70 21.79-16.28L21.79-16.28L21.79-16.28Q23.56-17.85 26.46-17.85L26.46-17.85L26.46-17.85Q29.37-17.85 30.99-16.29L30.99-16.29L30.99-16.29Q32.62-14.74 32.62-11.97L32.62-11.97L32.62-7.42L21.98-6.83L21.98-4.69L21.98-4.69Q21.98-3.01 23.07-2.17L23.07-2.17L23.07-2.17Q24.15-1.33 25.90-1.33L25.90-1.33L25.90-1.33Q28.35-1.33 30.98-2.73L30.98-2.73L31.75-1.23zM30.66-12.22L30.66-12.22Q30.66-14.39 29.30-15.28L29.30-15.28L29.30-15.28Q27.93-16.17 26.43-16.17L26.43-16.17L26.43-16.17Q24.50-16.17 23.24-15.12L23.24-15.12L23.24-15.12Q21.98-14.07 21.98-11.83L21.98-11.83L21.98-8.75L30.66-9.17L30.66-12.22" fill="#689cc5" stroke="none" stroke-width="none" transform="translate(-68.99998188018799,8.734470418149778)" style="fill: rgb(94, 111, 163);"></path></g><g class="path" style="opacity: 1; transform-origin: -26.315px -0.175529px; animation: 1s linear -0.48s infinite normal forwards running fade-54297e18-caea-460f-84e0-77f36bf3c479;"><path d="M47.22 0L47.22-12.01L47.22-12.01Q47.22-14.14 45.97-15.10L45.97-15.10L45.97-15.10Q44.73-16.07 42.77-16.07L42.77-16.07L42.77-16.07Q41.58-16.07 40.36-15.73L40.36-15.73L40.36-15.73Q39.13-15.40 38.19-14.88L38.19-14.88L38.19 0L36.23 0L36.23-17.54L38.19-17.54L38.05-16.35L38.05-16.35Q38.88-17.08 40.18-17.45L40.18-17.45L40.18-17.45Q41.48-17.82 42.88-17.82L42.88-17.82L42.88-17.82Q44.80-17.82 46.16-17.19L46.16-17.19L46.16-17.19Q47.56-16.56 48.35-15.30L48.35-15.30L48.35-15.30Q49.14-14.04 49.14-12.11L49.14-12.11L49.14 0L47.22 0" fill="#689cc5" stroke="none" stroke-width="none" transform="translate(-68.99998188018799,8.734470418149778)" style="fill: rgb(59, 67, 104);"></path></g><g class="path" style="opacity: 1; transform-origin: -11.005px -0.19053px; animation: 1s linear -0.42s infinite normal forwards running fade-54297e18-caea-460f-84e0-77f36bf3c479;"><path d="M53.62 0L53.62-17.54L55.58-17.54L55.48-16.31L55.48-16.31Q57.12-17.85 59.78-17.85L59.78-17.85L59.78-17.85Q60.73-17.85 62.37-17.54L62.37-17.54L61.84-15.75L61.84-15.75Q60.73-16.10 59.50-16.10L59.50-16.10L59.50-16.10Q57.89-16.10 56.73-15.51L56.73-15.51L56.73-15.51Q55.58-14.91 55.58-13.72L55.58-13.72L55.58 0L53.62 0" fill="#689cc5" stroke="none" stroke-width="none" transform="translate(-68.99998188018799,8.734470418149778)" style="fill: rgb(104, 156, 197);"></path></g><g class="path" style="opacity: 1; transform-origin: 1.66501px 0.0194702px; animation: 1s linear -0.36s infinite normal forwards running fade-54297e18-caea-460f-84e0-77f36bf3c479;"><path d="M76.09-1.23L76.09-1.23Q74.83-0.42 73.22 0L73.22 0L73.22 0Q71.61 0.42 70 0.42L70 0.42L70 0.42Q67.41 0.42 65.89-0.86L65.89-0.86L65.89-0.86Q64.36-2.14 64.36-4.69L64.36-4.69L64.36-11.87L64.36-11.87Q64.36-14.70 66.13-16.28L66.13-16.28L66.13-16.28Q67.90-17.85 70.81-17.85L70.81-17.85L70.81-17.85Q73.71-17.85 75.34-16.29L75.34-16.29L75.34-16.29Q76.97-14.74 76.97-11.97L76.97-11.97L76.97-7.42L66.33-6.83L66.33-4.69L66.33-4.69Q66.33-3.01 67.41-2.17L67.41-2.17L67.41-2.17Q68.50-1.33 70.25-1.33L70.25-1.33L70.25-1.33Q72.70-1.33 75.32-2.73L75.32-2.73L76.09-1.23zM75.00-12.22L75.00-12.22Q75.00-14.39 73.64-15.28L73.64-15.28L73.64-15.28Q72.28-16.17 70.77-16.17L70.77-16.17L70.77-16.17Q68.84-16.17 67.59-15.12L67.59-15.12L67.59-15.12Q66.33-14.07 66.33-11.83L66.33-11.83L66.33-8.75L75.00-9.17L75.00-12.22" fill="#689cc5" stroke="none" stroke-width="none" transform="translate(-68.99998188018799,8.734470418149778)" style="fill: rgb(94, 111, 163);"></path></g><g class="path" style="opacity: 1; transform-origin: 17.365px 0.0194702px; animation: 1s linear -0.3s infinite normal forwards running fade-54297e18-caea-460f-84e0-77f36bf3c479;"><path d="M93.10 0L93.10 0Q89.32 0.39 87.64 0.39L87.64 0.39L87.64 0.39Q83.97 0.39 81.80-0.98L81.80-0.98L81.80-0.98Q79.63-2.35 79.63-5.92L79.63-5.92L79.63-8.82L79.63-8.82Q79.63-12.29 82.04-13.48L82.04-13.48L82.04-13.48Q83.19-14.07 84.98-14.07L84.98-14.07L84.98-14.07Q86.63-14.07 88.31-13.53L88.31-13.53L88.31-13.53Q89.98-12.99 91.14-12.11L91.14-12.11L91.14-12.11Q91.14-14.04 90.02-15.17L90.02-15.17L90.02-15.17Q88.90-16.31 85.72-16.31L85.72-16.31L85.82-17.82L85.82-17.82Q89.18-17.82 90.77-16.75L90.77-16.75L90.77-16.75Q92.36-15.68 92.73-14.21L92.73-14.21L92.73-14.21Q93.10-12.74 93.10-10.43L93.10-10.43L93.10 0zM91.14-10.61L91.14-10.61Q89.70-11.27 88.08-11.76L88.08-11.76L88.08-11.76Q86.45-12.25 85.08-12.25L85.08-12.25L85.08-12.25Q81.55-12.25 81.55-8.72L81.55-8.72L81.55-5.67L81.55-5.67Q81.55-3.40 83.13-2.36L83.13-2.36L83.13-2.36Q84.70-1.33 87.61-1.33L87.61-1.33L87.61-1.33Q89.11-1.33 91.14-1.61L91.14-1.61L91.14-10.61" fill="#689cc5" stroke="none" stroke-width="none" transform="translate(-68.99998188018799,8.734470418149778)" style="fill: rgb(59, 67, 104);"></path></g><g class="path" style="opacity: 1; transform-origin: 29.07px -3.51553px; animation: 1s linear -0.24s infinite normal forwards running fade-54297e18-caea-460f-84e0-77f36bf3c479;"><path d="M97.09 0L97.09-24.50L99.05-24.50L99.05 0L97.09 0" fill="#689cc5" stroke="none" stroke-width="none" transform="translate(-68.99998188018799,8.734470418149778)" style="fill: rgb(104, 156, 197);"></path></g><g class="path" style="opacity: 1; transform-origin: 36.75px -14.9455px; animation: 1s linear -0.18s infinite normal forwards running fade-54297e18-caea-460f-84e0-77f36bf3c479;"><path d="M105.77-22.51L105.77-22.51Q105.31-22.51 104.95-22.87L104.95-22.87L104.95-22.87Q104.58-23.24 104.58-23.70L104.58-23.70L104.58-23.70Q104.58-24.15 104.93-24.50L104.93-24.50L104.93-24.50Q105.28-24.85 105.77-24.85L105.77-24.85L105.77-24.85Q106.26-24.85 106.59-24.52L106.59-24.52L106.59-24.52Q106.92-24.19 106.92-23.70L106.92-23.70L106.92-23.70Q106.92-23.21 106.57-22.86L106.57-22.86L106.57-22.86Q106.22-22.51 105.77-22.51L105.77-22.51" fill="#689cc5" stroke="none" stroke-width="none" transform="translate(-68.99998188018799,8.734470418149778)" style="fill: rgb(94, 111, 163);"></path></g><g class="path" style="opacity: 1; transform-origin: 36.73px -0.0355301px; animation: 1s linear -0.12s infinite normal forwards running fade-54297e18-caea-460f-84e0-77f36bf3c479;"><path d="M104.75 0L104.75-17.54L106.71-17.54L106.71 0L104.75 0" fill="#689cc5" stroke="none" stroke-width="none" transform="translate(-68.99998188018799,8.734470418149778)" style="fill: rgb(59, 67, 104);"></path></g><g class="path" style="opacity: 1; transform-origin: 49.875px -0.0355301px; animation: 1s linear -0.06s infinite normal forwards running fade-54297e18-caea-460f-84e0-77f36bf3c479;"><path d="M112.45 0L112.45-1.75L122.08-15.75L112.77-15.75L112.77-17.54L124.56-17.54L124.56-15.79L114.87-1.79L125.30-1.79L125.30 0L112.45 0" fill="#689cc5" stroke="none" stroke-width="none" transform="translate(-68.99998188018799,8.734470418149778)" style="fill: rgb(104, 156, 197);"></path></g><g class="path" style="opacity: 1; transform-origin: 64.98px 0.0194702px; animation: 1s linear 0s infinite normal forwards running fade-54297e18-caea-460f-84e0-77f36bf3c479;"><path d="M139.41-1.23L139.41-1.23Q138.15-0.42 136.53 0L136.53 0L136.53 0Q134.93 0.42 133.31 0.42L133.31 0.42L133.31 0.42Q130.72 0.42 129.20-0.86L129.20-0.86L129.20-0.86Q127.68-2.14 127.68-4.69L127.68-4.69L127.68-11.87L127.68-11.87Q127.68-14.70 129.45-16.28L129.45-16.28L129.45-16.28Q131.22-17.85 134.12-17.85L134.12-17.85L134.12-17.85Q137.03-17.85 138.65-16.29L138.65-16.29L138.65-16.29Q140.28-14.74 140.28-11.97L140.28-11.97L140.28-7.42L129.64-6.83L129.64-4.69L129.64-4.69Q129.64-3.01 130.72-2.17L130.72-2.17L130.72-2.17Q131.81-1.33 133.56-1.33L133.56-1.33L133.56-1.33Q136.01-1.33 138.63-2.73L138.63-2.73L139.41-1.23zM138.32-12.22L138.32-12.22Q138.32-14.39 136.96-15.28L136.96-15.28L136.96-15.28Q135.59-16.17 134.09-16.17L134.09-16.17L134.09-16.17Q132.16-16.17 130.90-15.12L130.90-15.12L130.90-15.12Q129.64-14.07 129.64-11.83L129.64-11.83L129.64-8.75L138.32-9.17L138.32-12.22" fill="#689cc5" stroke="none" stroke-width="none" transform="translate(-68.99998188018799,8.734470418149778)" style="fill: rgb(94, 111, 163);"></path></g></g>
</g>
</g>
<style id="fade-54297e18-caea-460f-84e0-77f36bf3c479" data-anikit="">@keyframes fade-54297e18-caea-460f-84e0-77f36bf3c479
{
  0% {
    animation-timing-function: cubic-bezier(0.2057,0.573,0.3723,0.9184);
    opacity: 1;
  }
  100% {
    opacity: 0;
  }
}</style></svg>